<mxfile host="app.diagrams.net" modified="2021-11-28T11:55:47.896Z" agent="5.0 (X11)" etag="sECnYWztZyWAnE7Z0nxl" version="15.8.6" type="github">
  <diagram id="y24AHuDKQIKt52D2mGsg" name="Page-1">
    <mxGraphModel dx="1309" dy="1017" grid="1" gridSize="10" guides="1" tooltips="1" connect="1" arrows="1" fold="1" page="1" pageScale="1" pageWidth="827" pageHeight="1169" math="0" shadow="0">
      <root>
        <mxCell id="0" />
        <mxCell id="1" parent="0" />
        <mxCell id="p6QeW58sFyW3Z1_NhLVu-3" value="" style="edgeStyle=orthogonalEdgeStyle;rounded=0;orthogonalLoop=1;jettySize=auto;html=1;" edge="1" parent="1" source="p6QeW58sFyW3Z1_NhLVu-1" target="p6QeW58sFyW3Z1_NhLVu-2">
          <mxGeometry relative="1" as="geometry" />
        </mxCell>
        <mxCell id="p6QeW58sFyW3Z1_NhLVu-1" value="Test" style="rounded=0;whiteSpace=wrap;html=1;" vertex="1" parent="1">
          <mxGeometry x="130" y="100" width="120" height="60" as="geometry" />
        </mxCell>
        <mxCell id="p6QeW58sFyW3Z1_NhLVu-2" value="Another" style="rhombus;whiteSpace=wrap;html=1;rounded=0;" vertex="1" parent="1">
          <mxGeometry x="350" y="90" width="80" height="80" as="geometry" />
        </mxCell>
      </root>
    </mxGraphModel>
  </diagram>
</mxfile>
